<?xml version="1.0" standalone="no"?>
<!DOCTYPE svg PUBLIC "-//W3C//DTD SVG 20010904//EN"
 "http://www.w3.org/TR/2001/REC-SVG-20010904/DTD/svg10.dtd">
<svg version="1.0" xmlns="http://www.w3.org/2000/svg"
 width="160.000000pt" height="300.000000pt" viewBox="0 0 160.000000 300.000000"
 preserveAspectRatio="xMidYMid meet">
<metadata>
Created by potrace 1.10, written by Peter Selinger 2001-2011
</metadata>
<g transform="translate(0.000000,300.000000) scale(0.100000,-0.100000)"
fill="#000000" stroke="none">
<path d="M1180 2910 c0 -5 6 -10 13 -10 9 0 8 -3 -2 -9 -8 -5 -9 -11 -3 -15
13 -8 36 20 27 34 -8 13 -35 13 -35 0z"/>
<path d="M1121 2831 c-16 -28 -14 -33 12 -29 14 2 22 10 22 22 0 27 -21 31
-34 7z"/>
<path d="M1220 2835 c0 -18 -16 -20 -24 -2 -3 6 -5 3 -3 -8 3 -29 41 -27 45 3
2 12 -1 22 -7 22 -6 0 -11 -7 -11 -15z"/>
<path d="M1098 2778 c19 -19 14 -28 -18 -28 -16 0 -30 -4 -30 -10 0 -5 -4 -10
-9 -10 -6 0 -22 -11 -37 -25 -16 -15 -39 -25 -56 -25 -16 0 -42 -7 -58 -15
-28 -14 -126 -133 -117 -141 3 -3 26 19 52 48 26 29 44 44 40 33 -5 -11 -11
-47 -14 -81 -4 -43 -15 -74 -35 -105 l-29 -44 32 29 c17 17 31 25 31 20 0 -6
-16 -26 -36 -45 -20 -18 -46 -56 -58 -84 -13 -27 -30 -56 -39 -64 -23 -19 -21
-34 2 -19 11 6 29 30 42 52 12 23 39 59 61 82 39 41 47 64 52 159 1 17 5 37 8
45 4 8 9 22 12 30 3 8 2 -16 -1 -55 -3 -38 -10 -78 -14 -87 -12 -22 -11 -31 1
-23 6 4 10 -7 9 -27 -1 -18 -3 -25 -6 -15 -4 14 -10 11 -32 -20 -15 -21 -33
-54 -39 -73 -7 -19 -27 -47 -45 -62 -44 -37 -29 -45 19 -9 28 20 44 41 54 72
12 38 15 41 18 18 1 -14 -6 -48 -16 -75 -15 -38 -29 -55 -62 -74 -56 -33 -78
-64 -90 -129 -5 -30 -15 -60 -21 -68 -7 -8 -8 -13 -1 -13 18 0 32 27 38 74 9
60 27 81 89 103 51 19 67 39 81 98 7 27 8 25 16 -25 11 -69 6 -99 -28 -149
-14 -22 -24 -48 -21 -58 3 -14 6 -12 16 12 7 16 24 46 39 65 25 32 27 43 28
130 0 83 16 162 29 148 10 -9 35 -152 35 -196 0 -35 -5 -52 -20 -65 -13 -10
-20 -29 -20 -50 0 -28 -5 -35 -33 -45 -18 -7 -52 -28 -74 -47 -23 -19 -47 -35
-53 -35 -7 0 -48 -19 -92 -42 -214 -111 -301 -276 -312 -593 -3 -82 -10 -167
-16 -188 -6 -21 -31 -60 -56 -88 -40 -45 -53 -69 -39 -69 3 0 18 15 34 32 l29
33 -5 -50 c-3 -31 -20 -80 -44 -127 -22 -43 -44 -90 -50 -104 -9 -25 -8 -26 7
-13 15 12 16 12 11 -6 -3 -11 -9 -42 -12 -70 -10 -82 -23 -104 -66 -117 -22
-6 -45 -18 -52 -26 -10 -13 -9 -15 6 -9 11 4 31 10 45 14 24 6 26 5 13 -10
-20 -25 -115 -77 -140 -77 -11 0 -21 -4 -21 -10 0 -15 35 -12 97 10 l57 20
-34 -35 c-44 -46 -33 -55 13 -11 20 19 54 40 74 46 21 7 51 24 66 39 l28 26
-21 -48 c-21 -47 -24 -100 -5 -95 5 2 8 15 6 30 -3 30 19 77 45 99 9 8 26 28
37 44 l19 30 -6 -53 c-3 -28 -1 -52 3 -52 11 0 20 160 11 178 -3 7 -12 -10
-19 -38 -8 -30 -20 -54 -30 -57 -9 -3 -29 -19 -46 -34 -39 -36 -104 -65 -101
-44 1 7 11 22 22 32 12 10 26 38 33 63 7 25 16 57 21 72 5 18 4 28 -4 31 -6 3
-12 24 -13 48 -2 52 32 117 60 113 13 -2 17 2 13 13 -3 8 1 21 9 29 13 14 15
11 16 -23 1 -37 1 -37 9 -9 11 35 2 94 -11 74 -6 -8 -9 -1 -9 22 0 19 4 30 8
23 4 -6 8 14 9 45 1 32 5 98 10 147 l8 90 22 -105 c31 -145 41 -369 19 -430
-13 -37 -14 -57 -5 -115 15 -97 25 -100 26 -8 0 43 4 114 9 158 l9 80 13 -59
c6 -33 12 -117 12 -187 0 -127 0 -128 -27 -154 -15 -14 -31 -25 -34 -25 -13 0
-39 -69 -39 -102 0 -36 23 -78 44 -78 7 0 21 -9 30 -19 40 -45 113 -33 174 28
24 24 32 41 32 68 0 46 -25 97 -56 114 -39 20 -45 40 -53 172 -8 117 10 541
25 612 10 49 77 225 86 225 18 0 82 -77 104 -125 45 -98 68 -357 43 -475 -6
-30 -25 -70 -46 -97 -20 -26 -35 -56 -35 -67 0 -12 21 -64 46 -118 41 -87 45
-101 39 -148 -4 -32 -15 -62 -28 -79 -30 -36 -55 -86 -55 -111 0 -59 72 -120
142 -120 33 0 100 37 125 69 21 27 15 85 -12 125 -30 44 -30 46 -7 46 9 0 29
10 43 23 80 69 59 152 -45 178 l-46 11 1 142 c1 186 9 249 37 279 28 30 51 96
54 157 l3 50 58 0 c32 0 73 7 92 14 l35 15 0 -92 c0 -51 2 -166 5 -257 3 -91
7 -237 10 -325 l5 -160 -36 -29 c-38 -30 -64 -79 -64 -121 0 -31 74 -111 112
-120 33 -8 120 32 156 71 48 54 18 153 -57 183 -26 11 -29 18 -35 79 -4 37 -1
213 5 392 7 179 13 354 14 390 1 36 10 81 18 102 9 20 22 68 28 107 20 119
-17 350 -76 479 -22 48 -23 56 -10 66 11 8 15 32 16 89 1 78 -9 107 -38 107
-11 0 -13 8 -9 28 3 15 8 54 11 88 4 33 10 66 14 73 14 22 41 -65 42 -137 l1
-67 12 55 c12 54 12 55 20 22 4 -18 4 -51 0 -75 -12 -71 -6 -107 26 -155 16
-25 30 -52 30 -59 0 -8 4 -12 9 -8 11 6 -1 53 -22 86 -21 33 -29 88 -18 124 9
30 9 30 10 -10 1 -25 10 -54 26 -77 14 -20 25 -42 25 -47 0 -6 5 -11 10 -11
18 0 11 21 -21 65 -30 41 -31 47 -24 105 8 73 23 68 36 -11 9 -56 31 -89 60
-89 16 0 15 3 -5 23 -16 16 -25 41 -30 80 -6 41 -16 67 -42 101 -36 47 -54 86
-54 114 1 23 39 -26 40 -50 0 -10 18 -37 40 -59 22 -23 40 -48 40 -55 0 -8 5
-14 10 -14 14 0 13 1 -15 62 -14 29 -25 63 -25 76 0 13 -8 37 -17 55 -11 20
-20 65 -23 122 -4 50 -10 98 -15 109 -7 15 -5 17 13 12 11 -4 23 -2 27 4 3 5
-1 10 -9 10 -8 0 -36 18 -61 40 -26 23 -57 40 -70 40 -13 0 -30 8 -37 19 -7
10 -32 22 -58 26 -44 7 -44 8 -22 23 12 8 22 19 22 24 0 6 -11 3 -25 -6 -29
-19 -49 -21 -39 -3 4 6 -1 4 -11 -5 -17 -16 -19 -15 -37 8 -11 13 -25 24 -31
24 -8 0 -7 -4 1 -12z m72 -55 c15 3 108 -29 125 -43 11 -9 31 -17 45 -18 13
-1 32 -11 42 -24 44 -55 52 -82 53 -178 1 -63 7 -105 17 -125 19 -38 31 -98
18 -90 -6 3 -10 14 -10 23 0 10 -8 33 -18 52 -10 19 -19 58 -20 87 -2 51 -18
110 -28 101 -2 -3 0 -27 6 -54 9 -37 9 -62 -1 -101 -11 -47 -13 -51 -26 -35
-13 15 -13 15 -7 -8 3 -14 19 -48 35 -76 16 -28 29 -60 29 -70 -1 -11 -15 8
-32 41 -17 33 -35 63 -41 66 -5 4 -6 12 -2 19 5 8 4 11 -3 6 -13 -8 -8 67 10
147 9 44 8 55 -17 113 -15 35 -31 64 -35 64 -4 0 -12 11 -18 25 -6 13 -24 31
-41 39 -27 14 -31 14 -57 -6 -37 -30 -48 -30 -75 -2 -29 31 -47 30 -96 -5 -77
-56 -85 -77 -89 -219 -1 -70 -7 -138 -13 -152 -8 -22 -10 -22 -11 -5 -1 17 -3
17 -12 -5 -15 -36 -22 -7 -8 35 6 20 13 96 14 170 3 146 9 165 56 165 15 0 44
13 65 30 21 17 47 30 59 30 11 0 28 4 35 9 8 5 22 6 30 1 9 -4 18 -8 21 -7z
m-49 -96 c11 -42 6 -128 -12 -182 -5 -16 -24 -39 -42 -50 -27 -17 -33 -27 -35
-63 -4 -60 29 -92 97 -92 42 0 53 4 70 26 39 50 17 144 -34 144 -22 0 -28 41
-16 119 12 79 36 137 60 146 20 8 92 -70 110 -121 13 -37 9 -106 -9 -134 -7
-12 -12 -12 -22 -2 -16 16 -31 16 -22 0 10 -17 12 -98 2 -104 -4 -3 -8 -14 -8
-25 0 -11 -7 -27 -15 -35 -8 -9 -15 -24 -15 -35 0 -26 -46 -36 -80 -17 -23 13
-29 13 -45 2 -27 -20 -33 -18 -66 17 -19 20 -29 42 -29 62 0 17 -3 27 -7 23
-4 -3 -15 11 -25 33 -19 43 -37 233 -18 196 8 -16 9 -13 6 18 -4 31 0 43 24
71 38 42 90 69 107 54 7 -6 18 -29 24 -51z m68 -253 c22 -29 28 -69 10 -79 -5
-4 -23 6 -38 22 -27 29 -59 48 -73 45 -12 -3 -9 13 4 26 22 22 75 14 97 -14z
m121 -11 c-1 -21 -7 -49 -14 -63 -13 -22 -14 -20 -11 35 3 68 2 65 15 65 6 0
10 -17 10 -37z m-37 -210 c-2 -91 -4 -99 -25 -110 -34 -19 -46 13 -24 67 9 22
16 49 16 59 0 15 27 81 34 81 1 0 1 -44 -1 -97z m-213 -36 c37 -88 33 -109
-17 -85 -28 13 -28 14 -29 107 0 52 3 86 7 75 3 -10 21 -54 39 -97z m9 59 c19
-23 60 -28 93 -11 49 24 58 20 47 -17 -5 -18 -14 -43 -20 -55 -8 -16 -9 -30
-1 -53 l11 -31 -52 3 -52 3 3 33 c3 23 -5 46 -27 81 -17 26 -31 51 -31 54 0
12 17 8 29 -7z m239 -233 c-15 -30 -51 -58 -88 -68 -33 -9 -16 9 30 34 34 18
57 50 28 39 -8 -3 -19 2 -26 12 -9 15 -8 17 7 13 11 -3 18 1 18 11 0 9 -5 16
-11 16 -19 0 -39 -17 -33 -28 4 -5 -2 -17 -13 -27 -11 -10 -20 -24 -20 -32 0
-7 -4 -13 -10 -13 -17 0 -11 26 10 45 11 10 20 23 19 29 0 6 -3 6 -6 -1 -6
-17 -23 -16 -23 0 0 8 20 24 45 37 24 13 53 32 62 43 18 19 18 18 21 -32 2
-28 -3 -63 -10 -78z m-213 37 c9 -7 15 -7 19 -1 4 6 17 6 37 -1 29 -10 30 -12
24 -52 -4 -22 -8 -42 -9 -42 0 -1 -21 -5 -45 -9 -43 -7 -44 -7 -39 18 5 24 4
25 -16 12 -19 -13 -26 -12 -54 5 -41 25 -48 42 -33 89 l11 38 46 -23 c26 -13
52 -28 59 -34z m-139 -49 c8 -20 27 -35 65 -53 72 -34 119 -40 181 -23 29 7
56 11 60 9 15 -10 8 -64 -14 -109 -21 -43 -21 -46 -5 -81 10 -20 25 -38 35
-41 9 -3 28 -19 42 -36 21 -26 25 -42 25 -92 -1 -38 -8 -73 -19 -94 -14 -26
-15 -35 -5 -41 8 -5 10 -20 6 -41 -19 -99 -22 -136 -19 -269 2 -80 4 -255 5
-390 4 -391 2 -366 37 -378 52 -18 80 -55 80 -104 0 -41 -21 -88 -40 -88 -4 0
-6 9 -3 20 3 11 0 20 -6 20 -6 0 -11 -9 -11 -20 0 -21 -30 -45 -70 -55 -37 -9
-80 27 -80 66 0 19 -4 28 -11 24 -6 -4 -8 -13 -5 -21 3 -8 1 -14 -3 -14 -12 0
-21 26 -21 60 0 39 53 100 87 100 23 0 25 3 19 32 -4 18 -11 209 -16 423 -11
416 -16 495 -31 495 -6 0 -9 -15 -7 -32 3 -30 0 -34 -37 -46 -23 -8 -64 -12
-95 -9 -58 4 -124 26 -103 34 9 3 9 10 1 29 -9 19 -27 33 -28 22 -8 -50 -24
-517 -25 -690 0 -152 -4 -238 -10 -238 -5 0 5 -12 23 -26 18 -14 39 -39 47
-54 20 -39 19 -94 -2 -111 -15 -13 -16 -11 -10 13 4 15 3 30 -3 33 -6 4 -10
-5 -10 -20 0 -36 -42 -75 -80 -75 -38 0 -80 39 -80 75 0 14 -5 25 -11 25 -8 0
-9 -11 -5 -32 4 -24 3 -29 -4 -18 -24 36 2 121 49 164 22 20 29 42 9 30 -6 -4
-8 -3 -4 4 3 6 11 129 17 274 9 244 12 265 32 293 20 28 21 40 20 245 -1 195
-3 221 -23 275 -34 93 -36 130 -9 169 41 60 106 79 136 40 6 -9 20 -14 30 -12
14 3 19 16 24 68 6 59 5 68 -18 98 -14 18 -30 50 -36 70 -11 37 -11 37 -15 9
-2 -19 6 -42 22 -68 27 -41 35 -110 16 -139 -9 -13 -11 -13 -19 0 -13 20 -100
14 -118 -8 -68 -84 -72 -111 -33 -222 21 -59 23 -85 25 -275 1 -128 -1 -185
-5 -145 -4 36 -8 101 -9 145 -1 85 -8 125 -21 125 -5 0 -10 -8 -12 -17 -3 -12
-15 2 -36 42 -37 70 -51 89 -73 97 -10 4 -27 24 -39 45 -21 39 -93 93 -123 93
-9 0 -28 -18 -43 -39 -21 -32 -27 -58 -35 -141 -5 -57 -12 -107 -15 -111 -9
-15 -41 -10 -48 6 -8 22 2 214 14 255 5 19 10 51 10 70 0 19 9 49 20 65 11 17
29 44 40 60 24 37 139 142 177 162 15 8 41 15 58 16 16 1 33 6 36 10 15 21
116 96 129 96 9 1 20 -12 26 -28z m359 -93 c43 -94 68 -230 69 -368 1 -123
-14 -207 -35 -195 -5 4 -10 -35 -10 -92 -1 -54 -5 -132 -9 -173 -6 -63 -7 -51
-8 81 -2 124 1 165 14 195 10 24 14 54 11 81 -2 23 -1 40 4 38 30 -19 13 238
-18 260 -9 6 -16 35 -18 74 -2 35 -13 81 -23 102 -17 34 -18 49 -5 49 2 0 15
-24 28 -52z m-5 -173 c31 -28 23 -39 -10 -15 -47 34 -55 55 -33 98 l18 37 3
-51 c2 -36 9 -57 22 -69z m-662 -207 c23 -18 42 -38 42 -45 0 -15 3 -15 -38
-4 -20 6 -42 6 -55 1 -20 -8 -19 -9 10 -9 61 -2 63 -6 33 -79 -15 -37 -35 -97
-44 -133 -23 -92 -40 -420 -31 -609 3 -85 6 -165 7 -177 0 -14 6 -23 15 -23 9
0 31 -16 49 -36 28 -29 34 -43 34 -79 0 -48 -19 -74 -21 -28 -1 27 -1 26 -10
-7 -11 -40 -51 -80 -79 -80 -47 0 -90 41 -90 85 0 21 -20 18 -21 -2 0 -14 -2
-12 -9 5 -15 37 15 99 60 122 45 23 52 38 39 82 -5 18 -9 72 -9 119 0 51 -10
135 -24 205 -33 163 -39 207 -27 199 12 -7 26 38 18 57 -3 7 -6 1 -6 -14 -1
-16 -5 -28 -11 -28 -18 0 -11 117 9 156 11 20 17 42 15 49 -3 8 0 23 6 35 6
11 15 64 19 117 5 60 13 99 20 101 7 2 16 15 21 28 13 32 28 30 78 -8z m-185
-314 l-10 -39 -11 26 c-6 15 -14 44 -17 65 l-7 39 27 -26 c25 -25 27 -30 18
-65z m404 -184 l0 -105 -8 120 c-4 66 -10 135 -13 153 -3 18 -2 41 2 50 10 24
20 -90 19 -218z m165 115 c-3 -64 -24 -136 -46 -155 -12 -9 -13 5 -9 77 2 48
7 95 10 103 4 8 5 21 4 28 -1 9 6 12 21 10 21 -3 23 -7 20 -63z m-176 -452
c-3 -92 -9 -169 -11 -172 -3 -2 -5 1 -5 7 0 7 -11 35 -24 62 -13 28 -20 50
-15 50 5 0 9 5 9 11 0 6 -7 9 -15 5 -8 -3 -15 -1 -15 3 0 5 -2 16 -5 23 -3 8
8 32 25 53 17 22 36 59 43 82 6 24 13 43 16 43 2 0 1 -75 -3 -167z m194 -182
c25 -18 43 -60 20 -46 -7 5 -11 1 -10 -11 5 -43 -1 -56 -32 -69 -55 -23 -68
-7 -68 82 l0 76 33 -7 c17 -3 43 -15 57 -25z"/>
<path d="M1343 2607 c13 -24 27 -55 32 -68 6 -20 8 -21 12 -6 6 21 -36 109
-55 115 -7 2 -3 -14 11 -41z"/>
<path d="M1042 2630 c-12 -12 -22 -26 -22 -32 0 -7 14 1 30 17 17 16 30 30 30
32 0 9 -19 1 -38 -17z"/>
<path d="M1070 2545 c0 -28 12 -32 30 -10 14 16 6 35 -16 35 -8 0 -14 -10 -14
-25z"/>
<path d="M1167 2563 c-13 -12 -7 -43 7 -43 19 0 28 14 20 34 -7 17 -16 20 -27
9z"/>
<path d="M978 2428 c-3 -15 3 -43 13 -65 10 -21 18 -30 19 -21 0 9 -5 20 -11
23 -6 4 -8 13 -5 20 2 7 1 26 -3 42 l-8 28 -5 -27z"/>
<path d="M875 1830 c-3 -11 -11 -18 -16 -15 -5 4 -9 0 -9 -9 0 -8 -5 -16 -11
-18 -13 -4 35 -58 52 -58 6 0 18 -8 25 -17 12 -17 13 -16 14 5 0 15 -6 22 -18
22 -16 0 -19 8 -18 44 1 24 4 42 8 40 4 -2 10 1 14 8 4 7 4 10 -1 6 -4 -4 -14
-3 -21 3 -9 7 -14 5 -19 -11z"/>
<path d="M965 1777 c-5 -18 -3 -33 4 -40 15 -15 18 -7 11 33 l-6 35 -9 -28z"/>
<path d="M753 1454 c2 -14 10 -30 18 -35 22 -14 33 -11 19 6 -7 8 -9 15 -4 15
5 0 1 5 -10 11 -15 9 -16 13 -5 20 11 7 10 9 -4 9 -13 0 -17 -6 -14 -26z"/>
<path d="M1093 1274 c3 -4 0 -13 -8 -21 -20 -19 -19 -26 8 -42 22 -14 22 -14
3 8 -20 22 -9 29 14 9 11 -10 11 -9 0 6 -12 15 -12 20 -2 23 14 5 6 23 -10 23
-6 0 -9 -3 -5 -6z"/>
<path d="M458 122 c-10 -2 -18 -11 -18 -21 0 -15 12 -17 95 -19 79 -1 95 1 95
13 0 13 -4 14 -21 4 -15 -7 -19 -8 -15 0 5 7 -3 9 -25 4 -21 -4 -34 -2 -40 8
-6 10 -9 10 -9 2 0 -17 -38 -17 -42 0 -2 7 -11 11 -20 9z"/>
</g>
</svg>
